<svg xmlns="http://www.w3.org/2000/svg" viewBox="0 0 100 100" fill="none">
  <!-- Fortune Cookie Icon -->
  <defs>
    <linearGradient id="cookieGrad" x1="0%" y1="0%" x2="100%" y2="100%">
      <stop offset="0%" style="stop-color:#FFD700;stop-opacity:1" />
      <stop offset="50%" style="stop-color:#FFA500;stop-opacity:1" />
      <stop offset="100%" style="stop-color:#FF8C00;stop-opacity:1" />
    </linearGradient>
    <radialGradient id="starGrad" cx="50%" cy="50%" r="50%">
      <stop offset="0%" style="stop-color:#00FFFF;stop-opacity:1" />
      <stop offset="100%" style="stop-color:#0080FF;stop-opacity:0.5" />
    </radialGradient>
  </defs>
  
  <!-- Space background -->
  <rect width="100" height="100" fill="#1a1a3a"/>
  
  <!-- Stars -->
  <circle cx="15" cy="20" r="1" fill="url(#starGrad)"/>
  <circle cx="85" cy="15" r="0.8" fill="#FFFFFF" opacity="0.8"/>
  <circle cx="90" cy="85" r="1.2" fill="url(#starGrad)"/>
  <circle cx="10" cy="75" r="0.6" fill="#FFFFFF" opacity="0.6"/>
  
  <!-- Fortune Cookie -->
  <!-- Left half -->
  <path d="M 25 35 Q 35 25 45 35 Q 40 50 35 55 Q 30 50 25 35 Z" 
        fill="url(#cookieGrad)" 
        stroke="#B8860B" 
        stroke-width="1"/>
  
  <!-- Right half -->
  <path d="M 55 35 Q 65 25 75 35 Q 70 50 65 55 Q 60 50 55 35 Z" 
        fill="url(#cookieGrad)" 
        stroke="#B8860B" 
        stroke-width="1"/>
  
  <!-- Fortune paper -->
  <rect x="40" y="60" width="20" height="8" fill="#FFFFFF" rx="2" stroke="#DDD"/>
  <line x1="42" y1="63" x2="56" y2="63" stroke="#333" stroke-width="0.5"/>
  <line x1="42" y1="65" x2="54" y2="65" stroke="#333" stroke-width="0.5"/>
  
  <!-- Sparkles -->
  <polygon points="20,50 22,54 18,54" fill="#00FFFF" opacity="0.8"/>
  <polygon points="80,40 82,44 78,44" fill="#FFD700" opacity="0.8"/>
  <circle cx="50" cy="20" r="1" fill="#FFFFFF" opacity="0.9"/>
</svg>